<svg width="60" height="26" viewBox="0 0 60 26" fill="none" xmlns="http://www.w3.org/2000/svg">
<path d="M58.0814 16.4545C58.0814 16.4545 38.7472 16.2613 12.9213 21.6939C12.8033 21.7185 12.6015 21.7257 12.4602 22.0957L12.3412 22.4337C12.3412 22.4337 12.0888 23.0707 12.6749 22.9408C12.6749 22.9408 35.157 18.7745 56.1272 20.1262C56.1272 20.1262 57.2647 20.2016 57.5851 19.4728L58.2208 18.4026C58.2208 18.4026 59.5651 16.4472 58.0814 16.4545Z" fill="white"/>
<path d="M15.1398 6.37795L15.4869 5.26285C15.4869 5.26285 15.8404 4.51767 15.233 4.24192C14.4167 3.99836 13.6139 3.71368 12.828 3.38905C12.828 3.38905 11.92 2.91625 11.6632 4.03957C11.6632 4.03957 11.2937 5.68446 10.1502 5.96746C10.0992 6.0934 10.0888 6.2315 10.1205 6.36333C10.1521 6.49517 10.2242 6.61449 10.3273 6.70539C10.5357 6.8923 10.7951 7.01655 11.0744 7.06316C11.3536 7.10977 11.6408 7.07676 11.9012 6.96811C11.3329 9.15195 10.5623 11.6241 9.41385 15.1563C9.41385 15.1563 6.24024 26.4339 3.83523 22.3294C3.3659 21.1641 3.28387 19.8848 3.60068 18.6716C3.60068 18.6716 3.85209 17.982 2.73934 17.9352L1.43716 17.8178C1.3342 17.8062 1.2302 17.8062 1.12724 17.8178C0.35714 17.8178 0.196971 18.7195 0.196971 18.7195C0.0158087 19.5529 -0.0408102 20.4076 0.0288681 21.2568H0.0318436C0.0615963 22.0778 0.0125051 25.1348 3.69291 25.9249C3.69291 25.9249 9.75105 27.5002 12.3261 16.2178L15.1398 6.37795Z" fill="white"/>
<path d="M59.9383 11.0577C59.4475 8.4365 59.1194 5.7889 58.9559 3.12927C58.9229 2.3825 58.9818 1.63457 59.1315 0.901469C59.2019 0.580315 59.244 0.405008 58.8835 0.229218C58.3713 0.0281717 57.8149 -0.0423053 57.267 0.0244524C57.1381 0.0771476 57.0238 0.158714 56.9335 0.262518C56.8431 0.366323 56.7791 0.489435 56.7468 0.621847C56.569 1.21671 56.4353 1.82323 56.3466 2.43673C56.2387 3.05133 55.9823 3.63215 55.5987 4.13133C55.215 4.6305 54.715 5.03374 54.14 5.3078C54.14 5.3078 55.1193 6.37027 56.0635 5.47297C56.0635 5.47297 56.4969 4.9852 56.5658 5.35803C56.5769 6.60934 56.725 7.85594 57.0076 9.07665C57.0076 9.07665 57.8506 12.4823 55.1729 12.5335C55.1729 12.5335 53.7993 12.4978 54.0264 10.8471C54.1703 10.2381 54.4995 9.68548 54.971 9.26162L55.3777 8.84388C55.4335 8.8038 55.4782 8.75085 55.5078 8.68979C55.5375 8.62873 55.5511 8.56147 55.5474 8.49402C55.5438 8.42658 55.523 8.36108 55.487 8.30337C55.451 8.24567 55.4008 8.19758 55.341 8.16342C54.8087 7.742 54.1936 7.4309 53.5335 7.24921C53.5335 7.24921 53.11 7.08357 52.8105 7.66358C52.8105 7.66358 50.6961 11.1002 46.6215 11.7401C45.6942 11.7579 45.6223 10.7742 45.5732 10.0498C45.5581 9.86187 45.6045 9.67415 45.7056 9.51343C45.8066 9.35272 45.9573 9.22723 46.136 9.15489C47.2765 8.74391 50.8156 7.33614 51.7543 5.37831C51.7543 5.37831 53.2484 2.72215 51.5133 1.21876C51.5133 1.21876 49.6587 -0.265311 47.7392 0.759485C47.7392 0.759485 44.3419 3.04523 43.3155 9.15392C43.3155 9.15392 41.7703 11.7135 40.9992 12.237C40.9992 12.237 40.0382 13.0252 40.2385 11.9018C40.68 9.70618 41.3678 7.56438 42.2895 5.51498L43.2222 3.78799C43.2564 3.73113 43.2778 3.66787 43.285 3.60238C43.2923 3.53688 43.2852 3.47063 43.2643 3.40799C43.2433 3.34535 43.209 3.28774 43.1635 3.23895C43.1181 3.19016 43.0625 3.15129 43.0006 3.12492L41.2104 2.25563C41.1114 2.20839 40.9975 2.19994 40.8923 2.23202C40.787 2.26409 40.6984 2.33425 40.6446 2.42804C40.5856 2.50772 40.4765 2.64005 40.36 2.79024C40.36 2.79024 36.1128 7.90939 35.6313 9.44659C35.6313 9.44659 36.9548 5.31843 37.7175 3.7962L38.3462 2.4377C38.3462 2.4377 38.6299 1.9905 38.1385 1.82919L36.7143 1.37523C36.5871 1.33176 36.4477 1.33707 36.3244 1.39008C36.2011 1.44309 36.1031 1.53983 36.0503 1.66065C36.0503 1.66065 30.4965 10.0068 29.9773 10.5144C29.9773 10.5144 31.9574 5.11511 32.6551 3.58178C32.6551 3.58178 32.9635 3.02012 32.4597 2.88876L30.5173 2.40582C30.5173 2.40582 29.9689 2.17884 29.6976 2.89649C29.6976 2.89649 27.4721 9.95609 26.5295 11.7623C26.5295 11.7623 25.389 14.4378 23.8398 15.1535C23.8398 15.1535 22.9512 15.5036 22.852 14.6469C22.8794 14.0749 23.0315 13.5151 23.2983 13.0049C23.2983 13.0049 26.2409 6.61898 26.642 5.79798L26.9227 5.17016C26.9227 5.17016 27.4042 4.42499 27.003 4.17289L25.7108 3.65615C25.454 3.5306 25.1571 3.50727 24.883 3.5911C24.6089 3.67492 24.379 3.85932 24.242 4.10528C24.242 4.10528 23.9217 4.72538 23.6807 5.09724C23.2883 4.67632 22.7589 4.4001 22.1817 4.3152C21.6046 4.23029 21.015 4.34191 20.5125 4.6312C20.5125 4.6312 18.2265 5.74583 16.3818 9.65376C16.3818 9.65376 14.5372 13.1309 14.3363 15.6296C14.3237 15.9425 14.3302 16.2559 14.3557 16.568V16.5723C14.4053 17.1557 14.5396 17.8483 14.8932 18.1462C15.0149 18.3296 15.1728 18.4875 15.3578 18.6108C15.615 18.7616 15.901 18.86 16.1984 18.9001C16.4957 18.9402 16.7984 18.9212 17.088 18.8441C17.1484 18.8359 17.2083 18.8246 17.2675 18.8103H17.2729C17.4794 18.7606 17.672 18.6669 17.8368 18.5359C18.0016 18.405 18.1345 18.24 18.226 18.053L20.1902 14.8115C20.1902 14.8115 20.3771 14.5455 20.4525 14.8898L20.5517 16.0005C20.5517 16.0005 20.5517 16.0595 20.5656 16.1522C20.5656 16.1522 20.5656 17.1253 21.2737 17.4479C21.3602 17.4838 21.4488 17.515 21.539 17.5411C21.9245 17.66 22.3322 17.6946 22.733 17.6425C23.2483 17.5975 23.7417 17.4186 24.1617 17.1244C24.5817 16.8302 24.9129 16.4316 25.1207 15.9701C25.1207 15.9701 25.4901 15.1641 25.7812 15.7702C25.7812 15.7702 26.0038 16.213 26.2106 16.5651C26.3435 16.7906 26.8389 16.6269 27.065 16.583L27.4498 16.483C27.4498 16.483 27.7568 16.4347 28.0275 15.8943C28.0275 15.8943 30.86 10.9437 32.5038 8.60193C32.5038 8.60193 33.1251 7.61094 32.905 8.56329C32.905 8.56329 31.7947 13.6467 31.9425 14.4609C31.9425 14.4609 32.0015 15.0825 32.5038 15.0467L33.4663 14.9685C33.4663 14.9685 34.1675 14.9646 34.652 13.8481C34.652 13.8481 36.7173 9.63831 37.9208 8.2716C37.9208 8.2716 38.5243 7.54284 38.4975 7.89539C38.4975 7.89539 37.838 10.7447 37.7983 11.5657C37.7983 11.5657 37.6778 14.1074 38.9616 14.459C38.9616 14.459 41.3681 15.5215 43.0928 12.5132C43.0928 12.5132 43.253 12.1863 43.494 12.435C43.8403 12.9525 44.327 13.3666 44.9001 13.6315C45.4731 13.8963 46.1103 14.0015 46.741 13.9355C46.741 13.9355 49.27 13.9838 51.429 11.5807C51.429 11.5807 51.7761 11.1528 51.8917 11.5918C51.8917 11.5918 52.3186 14.6155 56.0669 14.4411C56.0694 14.4339 60.575 14.345 59.9383 11.0577ZM17.4648 16.454C17.4286 16.5261 17.3775 16.59 17.3148 16.642C17.252 16.6939 17.179 16.7327 17.1001 16.7559C17.0213 16.7791 16.9384 16.7862 16.8566 16.7768C16.7749 16.7675 16.6959 16.7417 16.6248 16.7013C16.5088 16.6443 16.4691 16.454 16.4691 16.454C15.9276 14.5503 19.8044 8.87189 19.8044 8.87189C20.2927 7.97627 20.9704 7.19164 21.7929 6.56972C22.0857 6.371 22.4381 6.27295 22.7945 6.29106C22.7945 6.29106 23.3866 6.35916 23.3926 6.68031C23.3926 6.6977 23.3926 6.71557 23.3881 6.73344L23.3851 6.75372C23.2697 7.04497 23.1283 7.32582 22.9626 7.59307L17.4648 16.454ZM46.4028 6.45719C46.4028 6.45719 47.4659 3.57647 49.5109 2.77624C49.6484 2.72837 49.7953 2.71149 49.9404 2.72689C50.0856 2.74228 50.2253 2.78953 50.349 2.8651C50.349 2.8651 51.4255 3.83098 49.1589 5.66614C49.1589 5.66614 47.1436 7.3458 46.5396 7.24342C46.5421 7.24535 46.1325 7.25018 46.4033 6.45913L46.4028 6.45719Z" fill="white"/>
</svg>
